# xmcd
#
# Track frame offsets: 
#        150
#        11130
#        27045
#        37142
#        48527
#        60860
#        71656
#        83633
#        92505
#        105240
#        115155
#        127590
#        137767
#        148841
#        161487
#        171916
#        184011
#        196525
#        207141
#        217627
#        229019
#        241431
#        257496
#        270023
#        281867
#        290499
#        300481
#        311308
#        321573
#
# Disc length: 4419 seconds
#
# Revision: 3
# Processed by: cddbd v1.5.2PL0 Copyright (c) Steve Scherf et al.
# Submitted via: ExactAudioCopy v1.1
#
DISCID=8411411d
DTITLE=Howard Tate - Get It While You Can:  The Complete Legendary Ver
DTITLE=ve Sessions
DYEAR=2004
DGENRE=Rhythm and Blues
TTITLE0=Ain't Nobody Home (stereo)
TTITLE1=Part-Time Love (stereo)
TTITLE2=Glad I Know Better (stereo)
TTITLE3=How Blue Can You Get (stereo)
TTITLE4=Get It While You Can (stereo)
TTITLE5=Baby I Love You (stereo)
TTITLE6=I Learned It All The Hard Way (stereo)
TTITLE7=Everyday I Have The Blues (stereo)
TTITLE8=How Come My Bulldog Don't Bark (stereo)
TTITLE9=Look At Granny Run Run (stereo)
TTITLE10=Stop (stereo)
TTITLE11=Sweet Love Child (stereo)
TTITLE12=Ain't Nobody Home (mono)
TTITLE13=How Come My Bulldog Don't Bark (mono)
TTITLE14=Look at Granny Run Run (mono)
TTITLE15=Half a Man (mono)
TTITLE16=Get It While You Can (mono)
TTITLE17=Glad I Know Better (mono)
TTITLE18=Baby I Love You (mono)
TTITLE19=How Blue Can You Get (mono)
TTITLE20=I Learned It All the Hard Way (mono)
TTITLE21=Part-Time Love (mono)
TTITLE22=Stop (mono)
TTITLE23=Shoot 'Em All Down (mono)
TTITLE24=Everyday I Have The Blues (mono)
TTITLE25=Night Owl (mono)
TTITLE26=Sweet Love Child (mono)
TTITLE27=I'm Your Servant (mono)
TTITLE28=Give Me Some Courage (stereo)
EXTD=*  Mono Singles\n+  Bonus Track
EXTT0=
EXTT1=
EXTT2=
EXTT3=
EXTT4=
EXTT5=
EXTT6=
EXTT7=
EXTT8=
EXTT9=
EXTT10=
EXTT11=
EXTT12=
EXTT13=
EXTT14=
EXTT15=
EXTT16=
EXTT17=
EXTT18=
EXTT19=
EXTT20=
EXTT21=
EXTT22=
EXTT23=
EXTT24=
EXTT25=
EXTT26=
EXTT27=
EXTT28=*  Mono Singles\n+  Bonus Track
PLAYORDER=
